<svg xmlns="http://www.w3.org/2000/svg" xmlns:xlink="http://www.w3.org/1999/xlink" width="290" height="313" viewBox="0 0 290 313">
  <defs>
    <clipPath id="clip-path">
      <rect id="Rectangle_147879" data-name="Rectangle 147879" width="290" height="313" transform="translate(1076 98)" fill="#373737"/>
    </clipPath>
  </defs>
  <g id="Mask_Group_11" data-name="Mask Group 11" transform="translate(-1076 -98)" clip-path="url(#clip-path)">
    <g id="Group_72895" data-name="Group 72895" transform="translate(1057.93 332.026) rotate(-53)" opacity="0.76">
      <path id="Path_1" data-name="Path 1" d="M-927.865-97.392l3.432.02s30.479-91.757,54.785-106.112c0,0-35.231,23.145-58.217,106.092" transform="translate(1070.387 237.376)" fill="#255d3c"/>
      <path id="Path_2" data-name="Path 2" d="M-828.933-176.035c-5.224.717-8.036,5.916-14.358,4.133,1.457-4.305,10.449-8.94,14.358-4.133" transform="translate(1096.595 245.249)" fill="#9a734f" fill-rule="evenodd"/>
      <path id="Path_3" data-name="Path 3" d="M-854.2-163.19c-1.5-5.1,2.613-7.558,5.118-10.511,1.364-1.6,2.447-3.594,4.244-4.192,2.326,7.476-3.173,13.147-9.361,14.7" transform="translate(1093.116 245.306)" fill="#63492b" fill-rule="evenodd"/>
      <path id="Path_4" data-name="Path 4" d="M-853.984-175.047c.682-.114.723.4,1.263.428,2.672,10.293-5.034,16.405-12.339,19.323-3.064-6.107,3.083-9.45,6.405-13.876a16.548,16.548,0,0,0,2.124-2.518c.526-.985,2.174-1.92,2.547-3.359" transform="translate(1089.591 246.183)" fill="#9a734f" fill-rule="evenodd"/>
      <path id="Path_5" data-name="Path 5" d="M-834.463-170c-1.157,1.744-3.367,1.3-5.494,2.076-3.088,1.121-5.811,4-10.13,2.049,0-.28,0-.561.006-.843,2.6-4.19,10.971-7.249,15.618-3.281" transform="translate(1094.49 247.181)" fill="#9a734f" fill-rule="evenodd"/>
      <path id="Path_6" data-name="Path 6" d="M-867.772-170.619c4.846,3.923,3.546,11.179-.1,16.865a50.477,50.477,0,0,1-5.519,6.713c-1.743-.005-2.782-3.431-2.494-6.339.222-2.211,2.268-5.006,3.843-7.989,1.811-3.435,2.947-6.365,4.268-9.25" transform="translate(1086.481 247.56)" fill="#9a734f" fill-rule="evenodd"/>
      <path id="Path_7" data-name="Path 7" d="M-841.728-161.359c-2,1.712-4.831,1.656-8.027,2.905-3.913,1.527-7.386,4.705-11.407,3.728-7.782-1.893,5.379-8.937,9.331-9.642,5.005-.892,7.315,1.334,10.1,3.009" transform="translate(1090.309 249.434)" fill="#9a734f" fill-rule="evenodd"/>
      <path id="Path_8" data-name="Path 8" d="M-877.754-162.311c9.907,7.114-.342,22.72-6.484,27.789-6.238-3.982-2.091-9.614,1.357-16.012a95.56,95.56,0,0,0,5.127-11.777" transform="translate(1082.908 250.135)" fill="#9a734f" fill-rule="evenodd"/>
      <path id="Path_9" data-name="Path 9" d="M-853.581-153.36c-2.153,2.064-5.5,3.017-8.882,5.009-4.634,2.729-8.648,7.7-14.776,3.286,4.482-5.889,14.222-14.017,23.658-8.3" transform="translate(1086.075 252.305)" fill="#9a734f" fill-rule="evenodd"/>
      <path id="Path_10" data-name="Path 10" d="M-890.13-150.15c9.354,8.273.048,23.59-6.91,28.207-5.975-6.056.381-13.06,3.059-18.532,1.661-3.4,3.138-6.16,3.85-9.675" transform="translate(1079.171 253.903)" fill="#9a734f" fill-rule="evenodd"/>
      <path id="Path_11" data-name="Path 11" d="M-863.591-138.432a69.877,69.877,0,0,0-9.718,3.737c-5.07,2.444-9.938,7.419-16.88,2.856.711-2.693,4.436-5.124,7.629-7.126,5.725-3.583,14.5-5.977,18.97.533" transform="translate(1082.062 256.269)" fill="#9a734f" fill-rule="evenodd"/>
      <path id="Path_12" data-name="Path 12" d="M-904.3-137.676c10.658,4.224,5.219,22.3.255,28.671,4.446-3.157,14.63-4.456,18.127.527-2.483,1.986-8.385,3.594-12.257,5.41-3.565,1.67-10.34,5.524-13.068-.5a55.741,55.741,0,0,1,6.774-5.02c-9.3-6.083.541-19.122.169-29.09" transform="translate(1075.538 257.769)" fill="#9a734f" fill-rule="evenodd"/>
      <path id="Path_13" data-name="Path 13" d="M-875.961-127.749c-2.091,2.047-5.454,2.536-8.877,4.163-4.954,2.358-9.958,7.744-16.038,2.861,1.588-3.307,7.766-8.22,12.28-9.626a12.534,12.534,0,0,1,12.635,2.6" transform="translate(1078.75 259.83)" fill="#9a734f" fill-rule="evenodd"/>
      <path id="Path_14" data-name="Path 14" d="M-915.9-127.118c11.173,3.909,5.687,22.55.255,28.671-3.457-.908-5-3.575-4.592-8.036.2-2.123,1.492-4.249,2.148-6.734,1.281-4.849,1.418-9.833,2.189-13.9" transform="translate(1072.729 261.041)" fill="#63492b" fill-rule="evenodd"/>
      <path id="Path_15" data-name="Path 15" d="M-923.785-93.723c2.989-1.561,8.773-4.138,13.351-3.074,2.361.548,3.25,2.543,5.043,2.979-3.542,2.516-10.114,5.029-14.8,7.926-3.355,2.072-8.894,5.595-13.078,1.189,1.642-3.712,4.766-5.921,8.058-7.964" transform="translate(1068.712 270.36)" fill="#63492b" fill-rule="evenodd"/>
      <path id="Path_16" data-name="Path 16" d="M-926.359-86.82c-7.836-7.283,1.215-18.724.59-29.089,10.463,3.09,5.693,21.524,1.1,27.412" transform="translate(1069.858 264.514)" fill="#9a734f" fill-rule="evenodd"/>
      <path id="Path_17" data-name="Path 17" d="M-896.924-103.353c-1.119,1.816-2.909,1.286-5.071,2.079-4.243,1.552-9.38,5.295-13.1,5.828a8.142,8.142,0,0,1-7.156-2.151c4.174-6.475,18.115-13.75,25.331-5.756" transform="translate(1072.125 267.317)" fill="#9a734f" fill-rule="evenodd"/>
      <path id="Path_18" data-name="Path 18" d="M-909.4-132.844c-.952-1.089,6.383-8.344,8.493-10.491A166.654,166.654,0,0,1-835.745-184.7c15.484-5.462,30.866-8.805,51.921-10.238,3.218-.219,11.187-.981,11.808-.355-.285-.287-8.982.968-11.392,1.2-26.212,2.52-48.122,11.19-67.155,20.269-23.117,11.028-41.063,24.215-58.842,40.977" transform="translate(1076.081 239.839)" fill="#7a9e43" fill-rule="evenodd"/>
      <path id="Path_19" data-name="Path 19" d="M-820.755-114.686c-5.013,18.591-15.379,32.73-28.5,43.685-14.906,12.443-34.028,22.1-61.676,20.722-34.114-1.7-59.771-22.445-73.09-46.8-.4-.739-.751-1.6-1.251-2.535a75.115,75.115,0,0,1-8.284-25.348c1.106-2.133,3.324-3.136,5.5-4.182,4.243,36.746,23.661,58.495,52.714,70.715-2.414-6.02-.877-19.654,1-26.976.818-3.187,1.417-7.261,4.259-7.566-2.432,10.259-1.648,24.786,1.5,33.317.793-7.783,2.185-14.549,6.016-19.36,2.526-3.177,6.388-6.6,11-7.525-.771,2.895-3.5,3.812-5.512,5.451-4.87,5.866-7.834,15.558-5.631,26.107,8.081,2.346,18.657,2.824,28.24,1.429,34.36-5.009,58.049-28.892,67.376-58.636-28.306,10.049-50.257,29.124-69,48.083.753-2.354.223-6.522,1.321-9.266,1.024-2.567,5.574-6.163,8.906-9.223a159.291,159.291,0,0,1,20.33-15.9c16.9-11.3,39.847-22.272,66.754-23.646,17.839-.909,35.282,1.514,48.871,6.187-5.156-.681-15.491-3.772-24.851-4.361-16.369-1.024-33.837,1.445-45.987,5.637" transform="translate(1050.028 260.412)" fill="#255d3c" fill-rule="evenodd"/>
      <path id="Path_20" data-name="Path 20" d="M-824.573-112.294c4.967,3.258.223,8.747-1.335,11.8-13.4,26.274-39.13,47.98-72.4,53.125-28.815,4.456-55.3-6.095-69.468-16.845,14.036,8.069,31.171,14.907,51.774,15.056,28.3.206,51.268-12.149,66.765-26.174A95.226,95.226,0,0,0-832.68-95.9a75.448,75.448,0,0,0,8.107-16.4" transform="translate(1058.018 265.635)" fill="#7a9e43" fill-rule="evenodd"/>
      <path id="Path_21" data-name="Path 21" d="M-918.172-229.236c-3.66,3.9-2.559,9.8-8.681,12.428-1.6-4.327,2.529-13.722,8.681-12.428" transform="translate(1070.593 229.358)" fill="#9a734f" fill-rule="evenodd"/>
      <path id="Path_22" data-name="Path 22" d="M-930.6-203.327c-4.44-3.057-2.765-7.63-2.676-11.556.049-2.135-.366-4.4.669-6.015,6.607,4.409,5.892,12.393,2.007,17.571" transform="translate(1068.592 231.979)" fill="#63492b" fill-rule="evenodd"/>
      <path id="Path_23" data-name="Path 23" d="M-938.586-212.369c.465-.525.828-.144,1.27-.469,8.681,6.409,6.507,16.15,2.61,23.117-6.316-2.86-3.6-9.421-3.811-15.033a16.557,16.557,0,0,0,.065-3.34c-.213-1.113.489-2.9-.135-4.276" transform="translate(1066.96 234.477)" fill="#9a734f" fill-rule="evenodd"/>
      <path id="Path_24" data-name="Path 24" d="M-918.588-220.745c.2,2.113-1.822,3.179-3.005,5.145-1.719,2.856-2.03,6.863-6.681,8.085-.176-.223-.354-.444-.534-.668-.626-4.963,4.021-12.723,10.22-12.562" transform="translate(1070.077 232.026)" fill="#9a734f" fill-rule="evenodd"/>
      <path id="Path_25" data-name="Path 25" d="M-946.007-200.747c6.327,0,9.933,6.549,10.692,13.359.253,2.258.159,8.639-.064,8.82-1.377,1.108-4.383-.93-6.013-3.407-1.238-1.885-1.409-5.4-2.073-8.753-.764-3.865-1.74-6.9-2.541-10.019" transform="translate(1064.764 238.224)" fill="#9a734f" fill-rule="evenodd"/>
      <path id="Path_26" data-name="Path 26" d="M-919.133-208.608c-.486,2.63-2.75,4.391-4.474,7.418-2.109,3.7-2.818,8.425-6.612,10.222-7.345,3.479-1.468-10.482,1.2-13.56,3.376-3.9,6.617-3.621,9.887-4.08" transform="translate(1068.555 235.788)" fill="#9a734f" fill-rule="evenodd"/>
      <path id="Path_27" data-name="Path 27" d="M-948.861-187.583c12.354-.718,14.24,18.133,12.634,26.052-7.461.844-7.787-6.246-9.155-13.493a97.061,97.061,0,0,0-3.479-12.559" transform="translate(1063.88 242.297)" fill="#9a734f" fill-rule="evenodd"/>
      <path id="Path_28" data-name="Path 28" d="M-923.817-194.223c-.38,3-2.411,5.892-3.806,9.622-1.91,5.11-1.9,11.593-9.552,12.026-.227-7.506,2.263-20.133,13.358-21.649" transform="translate(1067.497 240.246)" fill="#9a734f" fill-rule="evenodd"/>
      <path id="Path_29" data-name="Path 29" d="M-950.794-170.143c12.659.549,15.1,18.57,12.565,26.654-8.578-.96-8.04-10.542-9.423-16.568-.861-3.74-1.46-6.861-3.142-10.086" transform="translate(1063.281 247.708)" fill="#63492b" fill-rule="evenodd"/>
      <path id="Path_30" data-name="Path 30" d="M-922.142-175.915a70.807,70.807,0,0,0-5.277,9.152c-2.436,5.165-3.1,12.2-11.487,13.032-1.159-2.578.225-6.873,1.466-10.491,2.225-6.48,7.617-13.973,15.3-11.693" transform="translate(1066.83 245.789)" fill="#63492b" fill-rule="evenodd"/>
      <path id="Path_31" data-name="Path 31" d="M-953.544-151.523c11.1-3.475,18.359,14.254,18.511,22.442,1.489-5.327,8.69-12.857,14.629-11.16-.691,3.152-4.315,8.188-6.209,12.094-1.745,3.592-4.627,10.958-10.623,7.952a56.463,56.463,0,0,1,2.136-8.284c-11.216,1.141-11.784-15.423-18.445-23.045" transform="translate(1062.429 253.34)" fill="#9a734f" fill-rule="evenodd"/>
      <path id="Path_32" data-name="Path 32" d="M-925.068-159.787c-.341,2.949-2.681,5.482-4.341,8.952-2.4,5.022-2.907,12.465-10.82,12.5-.859-3.622.875-11.441,3.537-15.433a12.715,12.715,0,0,1,11.623-6.016" transform="translate(1066.486 250.907)" fill="#9a734f" fill-rule="evenodd"/>
      <path id="Path_33" data-name="Path 33" d="M-955.479-136.139c11.305-4.053,18.885,14.148,18.511,22.444-3.306,1.492-6.227.376-8.752-3.4-1.2-1.8-1.538-4.3-2.609-6.682-2.086-4.642-5.161-8.66-7.15-12.359" transform="translate(1061.83 258.065)" fill="#9a734f" fill-rule="evenodd"/>
      <path id="Path_34" data-name="Path 34" d="M-941.3-101.967c1.36-3.14,4.275-8.865,8.565-10.951,2.211-1.077,4.186-.071,5.88-.872-1.187,4.247-4.764,10.424-6.61,15.7-1.323,3.776-3.441,10.09-9.553,9.29-1.077-3.976-.022-7.713,1.266-11.425" transform="translate(1065.552 265.171)" fill="#9a734f" fill-rule="evenodd"/>
      <path id="Path_35" data-name="Path 35" d="M-937.875-97.762c-10.83-.739-11-15.541-18.111-23.313,10.223-4.245,18.234,13.336,18.378,20.908" transform="translate(1061.672 262.711)" fill="#63492b" fill-rule="evenodd"/>
      <path id="Path_36" data-name="Path 36" d="M-925.9-127.12c.277,2.146-1.473,2.872-2.672,4.878-2.353,3.932-4.014,10.165-6.611,12.963a8.257,8.257,0,0,1-7.015,2.874c-.845-7.77,5.5-22.411,16.3-20.715" transform="translate(1065.923 260.998)" fill="#9a734f" fill-rule="evenodd"/>
      <path id="Path_37" data-name="Path 37" d="M-1036.669-183.579s87.248,14.92,105.688,115.24l-3.95,11.12s-8.416-100.754-101.738-126.36" transform="translate(1036.669 243.544)" fill="#7a9e43" fill-rule="evenodd"/>
    </g>
  </g>
</svg>
