<svg xmlns="http://www.w3.org/2000/svg" width="20.507" height="20.545" viewBox="0 0 20.507 20.545">
  <path id="phone" d="M21.117,16.258v2.867a1.911,1.911,0,0,1-2.083,1.911A18.911,18.911,0,0,1,10.787,18.1a18.634,18.634,0,0,1-5.734-5.734A18.911,18.911,0,0,1,2.12,4.083,1.911,1.911,0,0,1,4.021,2H6.888A1.911,1.911,0,0,1,8.8,3.644a12.27,12.27,0,0,0,.669,2.685,1.911,1.911,0,0,1-.43,2.016L7.825,9.559a15.29,15.29,0,0,0,5.734,5.734l1.214-1.214a1.911,1.911,0,0,1,2.016-.43,12.27,12.27,0,0,0,2.685.669A1.911,1.911,0,0,1,21.117,16.258Z" transform="translate(-1.361 -1.25)" fill="none" stroke="#7a9e43" stroke-linecap="round" stroke-linejoin="round" stroke-width="1.5"/>
</svg>
