<svg xmlns="http://www.w3.org/2000/svg" width="19.894" height="19.99" viewBox="0 0 19.894 19.99">
  <path id="whatsapp" d="M17.246,2.905A9.908,9.908,0,0,0,1.655,14.857L.25,19.99,5.5,18.613a9.9,9.9,0,0,0,4.734,1.206h0A9.91,9.91,0,0,0,17.246,2.905Zm-7.007,15.24h0A8.223,8.223,0,0,1,6.045,17l-.3-.178-3.116.817L3.46,14.6l-.2-.311a8.233,8.233,0,1,1,6.975,3.858Zm4.516-6.166c-.247-.124-1.464-.723-1.691-.805s-.392-.124-.557.124-.639.805-.784.97-.289.186-.536.062A6.76,6.76,0,0,1,9.2,11.1,7.466,7.466,0,0,1,7.819,9.387c-.144-.248,0-.369.109-.505a7,7,0,0,0,.619-.847A.455.455,0,0,0,8.526,7.6c-.062-.124-.557-1.342-.763-1.838s-.4-.417-.557-.425S6.9,5.33,6.732,5.33a.909.909,0,0,0-.66.31,2.776,2.776,0,0,0-.866,2.065,4.815,4.815,0,0,0,1.011,2.56A11.033,11.033,0,0,0,10.444,14a14.167,14.167,0,0,0,1.411.521,3.393,3.393,0,0,0,1.559.1,2.55,2.55,0,0,0,1.671-1.177,2.068,2.068,0,0,0,.144-1.177c-.062-.1-.227-.165-.474-.289Zm0,0" transform="translate(-0.25)" fill="#7a9e43" fill-rule="evenodd"/>
</svg>
